<svg xmlns="http://www.w3.org/2000/svg" xmlns:xlink="http://www.w3.org/1999/xlink" version="1.1" x="0px" y="0px" viewBox="0 0 64 80" enable-background="new 0 0 64 64" xml:space="preserve"><g display="none"><rect x="-85" y="-171.506" display="inline" fill="#000000" width="786.5" height="405.5"/></g><g display="none"><g display="inline"><g><g><path d="M58.661,49.599V12.8c0-0.88-0.72-1.6-1.6-1.6H6.938c-0.88,0-1.6,0.72-1.6,1.6v36.799      C5.338,49.599,58.795,49.599,58.661,49.599z"/></g><g><rect y="49.6" fill="#000000" width="64" height="1.067"/></g><g><polygon fill="#000000" points="60.8,52.8 3.2,52.8 0,50.666 64,50.666     "/></g></g><g opacity="0.2"><path fill="#000000" d="M28.437,11.2H6.938c-0.88,0-1.6,0.72-1.6,1.6v17.346L28.437,11.2z"/></g><g opacity="0.7"><g><path fill="#000000" d="M37.73,49.6H26.27c0.109,0.598,0.642,1.065,1.309,1.065h8.842C37.088,50.666,37.622,50.198,37.73,49.6z"/></g></g></g><g display="inline"><g><path fill="#000000" d="M29.682,35.397l3.748-9.739h0.913l-3.761,9.739H29.682z"/></g><g><path fill="#000000" d="M22.579,30.924l6.233-3.21v0.927l-5.253,2.633V31.3l5.253,2.633v0.927l-6.233-3.21V30.924z"/></g><g><path fill="#000000" d="M41.421,31.663l-6.233,3.197v-0.927l5.292-2.633v-0.026l-5.292-2.633v-0.927l6.233,3.197V31.663z"/></g></g><g display="inline"><g><path fill="#000000" d="M32,18.91c6.617,0,12,5.379,12,11.991s-5.383,11.991-12,11.991s-12-5.379-12-11.991     S25.383,18.91,32,18.91 M32,17.91c-7.168,0-13,5.828-13,12.991s5.832,12.991,13,12.991c7.168,0,13-5.828,13-12.991     S39.168,17.91,32,17.91L32,17.91z"/></g></g></g><g display="none"><path display="inline" fill="#000000" d="M32,0C14.327,0,0,14.327,0,32s14.327,32,32,32s32-14.327,32-32S49.673,0,32,0L32,0z"/><rect x="4.995" y="11.76" display="inline" fill="#000000" width="54" height="40.236"/><g display="inline"><polygon points="60.798,53.447 3.208,53.447 0.008,50.947 63.997,50.947   "/></g><g display="inline"><path d="M60.193,49.947h-2V13.153c0-0.325-0.275-0.6-0.601-0.6H6.412c-0.325,0-0.6,0.274-0.6,0.6v36.794h-2V13.153    c0-1.434,1.166-2.6,2.6-2.6h51.18c1.434,0,2.601,1.166,2.601,2.6V49.947z"/></g><g display="inline"><g><path d="M26.234,49.447H0.003v1.5h28.076C27.139,50.947,26.387,50.289,26.234,49.447z"/></g></g><g display="inline"><g><path d="M37.76,49.447c-0.153,0.842-0.904,1.5-1.844,1.5h28.076v-1.5H37.76z"/></g></g><rect x="7.801" y="14.436" display="inline" width="48.387" height="33.01"/><g display="inline"><path fill="#000000" d="M29.682,35.397l3.748-9.739h0.913l-3.761,9.739H29.682z"/><path fill="#000000" d="M22.579,30.924l6.233-3.21v0.927l-5.253,2.633V31.3l5.253,2.633v0.927l-6.233-3.21V30.924z"/><path fill="#000000" d="M41.421,31.663l-6.233,3.197v-0.927l5.292-2.633v-0.026l-5.292-2.633v-0.927l6.233,3.197V31.663z"/></g><g display="inline"><g><path fill="#000000" d="M32,18.91c6.617,0,12,5.379,12,11.991s-5.383,11.991-12,11.991s-12-5.379-12-11.991     S25.383,18.91,32,18.91 M32,17.91c-7.168,0-13,5.828-13,12.991s5.832,12.991,13,12.991c7.168,0,13-5.828,13-12.991     S39.168,17.91,32,17.91L32,17.91z"/></g></g></g><g display="none"><rect x="4.995" y="11.76" display="inline" fill="#000000" width="54" height="40.236"/><g display="inline"><polygon points="60.798,53.447 3.208,53.447 0.008,50.947 63.997,50.947   "/></g><g display="inline"><path d="M60.193,49.947h-2V13.153c0-0.325-0.275-0.6-0.601-0.6H6.412c-0.325,0-0.6,0.274-0.6,0.6v36.794h-2V13.153    c0-1.434,1.166-2.6,2.6-2.6h51.18c1.434,0,2.601,1.166,2.601,2.6V49.947z"/></g><g display="inline"><g><path d="M26.234,49.447H0.003v1.5h28.076C27.139,50.947,26.387,50.289,26.234,49.447z"/></g></g><g display="inline"><g><path d="M37.76,49.447c-0.153,0.842-0.904,1.5-1.844,1.5h28.076v-1.5H37.76z"/></g></g><rect x="7.801" y="14.436" display="inline" width="48.387" height="33.01"/><g display="inline"><path fill="#000000" d="M29.682,35.397l3.748-9.739h0.913l-3.761,9.739H29.682z"/><path fill="#000000" d="M22.579,30.924l6.233-3.21v0.927l-5.253,2.633V31.3l5.253,2.633v0.927l-6.233-3.21V30.924z"/><path fill="#000000" d="M41.421,31.663l-6.233,3.197v-0.927l5.292-2.633v-0.026l-5.292-2.633v-0.927l6.233,3.197V31.663z"/></g><g display="inline"><g><path fill="#000000" d="M32,18.91c6.617,0,12,5.379,12,11.991s-5.383,11.991-12,11.991s-12-5.379-12-11.991     S25.383,18.91,32,18.91 M32,17.91c-7.168,0-13,5.828-13,12.991s5.832,12.991,13,12.991c7.168,0,13-5.828,13-12.991     S39.168,17.91,32,17.91L32,17.91z"/></g></g></g><g><g><path d="M63.992,49.447h-3.799V13.153c0-1.434-1.167-2.6-2.601-2.6H6.412c-1.434,0-2.6,1.166-2.6,2.6v36.294h-3.81v1.5h0.006    l3.199,2.5h57.59l3.199-2.5h-0.006V49.447z M58.193,49.447H37.76c-0.153,0.842-0.904,1.5-1.844,1.5h-7.837    c-0.94,0-1.691-0.658-1.844-1.5H5.813V13.153c0-0.325,0.274-0.6,0.6-0.6h51.18c0.325,0,0.601,0.274,0.601,0.6V49.447z"/><polygon points="29.5,35.522 30.669,35.522 34.46,25.703 34.526,25.533 33.344,25.533   "/><polygon points="22.453,30.847 22.453,31.725 28.937,35.064 28.937,33.855 23.812,31.287 28.867,28.752 28.937,28.718     28.937,27.509 22.521,30.812   "/><polygon points="35.063,28.718 40.227,31.286 35.133,33.82 35.063,33.855 35.063,35.063 41.547,31.739 41.547,30.834     35.063,27.51   "/><path d="M32,16.41c-7.995,0-14.5,6.501-14.5,14.491S24.005,45.392,32,45.392c7.995,0,14.5-6.501,14.5-14.491    S39.995,16.41,32,16.41z M32,43.892c-7.168,0-13-5.828-13-12.991S24.832,17.91,32,17.91s13,5.828,13,12.991    S39.168,43.892,32,43.892z"/></g></g><text x="0" y="79" fill="#000000" font-size="5px" font-weight="bold" font-family="'Helvetica Neue', Helvetica, Arial-Unicode, Arial, Sans-serif">Created by Alfredo Hernandez</text><text x="0" y="84" fill="#000000" font-size="5px" font-weight="bold" font-family="'Helvetica Neue', Helvetica, Arial-Unicode, Arial, Sans-serif">from the Noun Project</text></svg>